<?xml version="1.0" encoding="UTF-8" standalone="no"?>
<!DOCTYPE svg PUBLIC "-//W3C//DTD SVG 1.1//EN" "http://www.w3.org/Graphics/SVG/1.1/DTD/svg11.dtd">
<svg width="100%" height="100%" viewBox="0 0 525 444" version="1.1" xmlns="http://www.w3.org/2000/svg" xmlns:xlink="http://www.w3.org/1999/xlink" xml:space="preserve" xmlns:serif="http://www.serif.com/" style="fill-rule:evenodd;clip-rule:evenodd;stroke-miterlimit:2;">
    <g>
        <path d="M24.473,233.103C14.865,123.297 63.399,29.356 132.879,23.277C202.359,17.198 266.471,101.284 276.08,211.09C285.689,320.897 237.155,414.838 167.675,420.917C98.195,426.996 34.082,342.91 24.473,233.103Z" style="fill:none;stroke:rgb(35,31,32);stroke-width:45.1px;"/>
        <path d="M135.257,23.802C71.829,204.416 225.593,236.993 169.391,413.956" style="fill:none;stroke:rgb(35,31,32);stroke-width:45.1px;"/>
        <path d="M262.618,143.643C311.684,64.585 387.747,22.964 443.644,49.029C506.855,78.506 520.336,183.383 473.754,283.283C427.171,383.183 338.168,440.27 274.956,410.793C259.612,403.638 247.199,392.04 237.863,377.149C266.447,338.28 281.964,277.583 276.144,211.065C274.052,187.149 269.374,164.453 262.618,143.643Z" style="fill:none;stroke:rgb(35,31,32);stroke-width:45.1px;"/>
        <path d="M445.37,50.663C300.135,175.365 417.011,280.461 279.859,405.615" style="fill:none;stroke:rgb(35,31,32);stroke-width:45.1px;"/>
    </g>
</svg>
