<?xml version="1.0" encoding="UTF-8" standalone="no"?>
<!DOCTYPE svg PUBLIC "-//W3C//DTD SVG 1.1//EN" "http://www.w3.org/Graphics/SVG/1.1/DTD/svg11.dtd">
<svg width="100%" height="100%" viewBox="0 0 596 705" version="1.1" xmlns="http://www.w3.org/2000/svg" xmlns:xlink="http://www.w3.org/1999/xlink" xml:space="preserve" xmlns:serif="http://www.serif.com/" style="fill-rule:evenodd;clip-rule:evenodd;stroke-linecap:round;stroke-linejoin:round;stroke-miterlimit:2;">
    <g>
        <path d="M346.317,504.278L318.064,350.258C312.802,319.371 298.724,321.725 268.9,322.362" style="fill:none;stroke:rgb(0,0,2);stroke-width:26.2px;"/>
        <path d="M330.705,469.992L348.696,466.82L356.378,510.377L338.387,513.549L330.705,469.992Z" style="fill:none;stroke:rgb(0,0,2);stroke-width:26.2px;"/>
        <path d="M154.006,24.476L170.094,13.214L267.226,151.87L251.138,163.133L154.006,24.476Z" style="fill:none;stroke:rgb(0,0,2);stroke-width:26.2px;"/>
        <path d="M279.298,543.144C279.298,551.439 290.644,562.785 298.94,562.785L430.056,562.785L430.056,690.98L383.995,690.98L383.995,672.494C382.779,653.814 367.242,632.107 348.255,632.107L13.194,632.107C-5.793,632.107 -21.329,653.814 -22.545,672.494L-22.545,690.98L-70.116,690.98L-70.116,180.979L279.253,180.979L279.298,543.144Z" style="fill:rgb(0,0,2);fill-rule:nonzero;"/>
        <path d="M279.298,543.144C279.298,551.439 290.644,562.785 298.94,562.785L430.056,562.785L430.056,690.98L383.995,690.98L383.995,672.494C382.779,653.814 367.242,632.107 348.255,632.107L13.194,632.107C-5.793,632.107 -21.329,653.814 -22.545,672.494L-22.545,690.98L-70.116,690.98L-70.116,180.979L279.253,180.979L279.298,543.144Z" style="fill:none;stroke:rgb(0,0,2);stroke-width:26.2px;"/>
        <path d="M478.994,326.9C478.994,314.391 520.601,304.251 571.927,304.251C623.254,304.251 664.861,314.391 664.861,326.9C664.861,339.409 623.254,349.549 571.927,349.549C520.601,349.549 478.994,339.409 478.994,326.9Z" style="fill:rgb(35,31,32);fill-rule:nonzero;"/>
        <path d="M331.703,288.456L331.703,204.465L509.236,204.465L509.236,288.456L474.977,288.456L474.977,336.454L364.007,336.454L364.007,288.456L331.703,288.456Z" style="fill:rgb(0,0,2);fill-rule:nonzero;"/>
        <path d="M331.703,288.456L331.703,204.465L509.236,204.465L509.236,288.456L474.977,288.456L474.977,336.454L364.007,336.454L364.007,288.456L331.703,288.456Z" style="fill:none;stroke:rgb(0,0,2);stroke-width:31.85px;"/>
        <rect x="251.633" y="224.079" width="89.197" height="45.653" style="fill:rgb(35,31,32);fill-rule:nonzero;"/>
        <rect x="251.633" y="224.079" width="89.197" height="45.653" style="fill:none;stroke:rgb(0,0,2);stroke-width:31.85px;"/>
    </g>
</svg>
