<svg xmlns="http://www.w3.org/2000/svg" viewBox="-29.75 -137.75 654.5 654.5" fill-rule="evenodd" clip-rule="evenodd" stroke-linejoin="round" stroke-miterlimit="2"><g transform="translate(0 30)"><path d="M111.204 55.859C91.17 55.859 83.422 65.267 87.253 84.929 89.903 98.512 93.071 112.461 96.537 126.006 99.944 139.302 106.452 144.352 120.181 144.352L362.648 144.352C376.366 144.352 382.876 139.302 386.283 126.006 389.759 112.461 392.917 98.512 395.567 84.929 399.398 65.267 391.65 55.859 371.614 55.859L111.204 55.859ZM506.523 88.154C492.316 88.154 486.43 94.038 486.43 108.246 486.43 122.455 492.316 128.34 506.523 128.34 520.732 128.34 526.617 122.455 526.617 108.246 526.617 94.038 520.732 88.154 506.523 88.154ZM47.481.073 435.349.073C453.474.073 460.808 7.859 459.704 25.964 459.204 34.115 458.437 42.246 457.486 50.358 512.178 4.028 594.681 52.374 581 122.733 567.32 193.091 472.712 206.993 439.362 143.546 438.959 145.111 438.546 146.666 438.124 148.231 422.907 195.731 403.977 238.471 370.798 277.129 365.605 283.188 360.259 285.644 352.28 285.644L130.539 285.644C122.561 285.644 117.225 283.188 112.022 277.129 78.843 238.471 59.913 195.731 44.696 148.231 33.906 107.949 25.659 67.802 23.116 25.964 22.022 7.859 29.346.073 47.481.073Z" fill="#fff" fill-rule="nonzero"/><path d="M482.561 347.584C482.561 330.333 475.41 323.181 458.159 323.181L24.719 323.181C7.467 323.181.316 330.333.316 347.584L.316 354.564C.316 371.814 7.467 378.967 24.719 378.967L458.159 378.967C475.41 378.967 482.561 371.814 482.561 354.564L482.561 347.584Z" fill="#fff" fill-rule="nonzero"/></g></svg>