<?xml version="1.0" encoding="UTF-8" standalone="no"?>
<!DOCTYPE svg PUBLIC "-//W3C//DTD SVG 1.1//EN" "http://www.w3.org/Graphics/SVG/1.1/DTD/svg11.dtd">
<svg width="100%" height="100%" viewBox="0 0 419 610" version="1.1" xmlns="http://www.w3.org/2000/svg" xmlns:xlink="http://www.w3.org/1999/xlink" xml:space="preserve" xmlns:serif="http://www.serif.com/" style="fill-rule:evenodd;clip-rule:evenodd;stroke-linecap:round;stroke-linejoin:round;stroke-miterlimit:2;">
    <g>
        <path d="M238.253,410.924L238.642,411.592C240.292,414.412 248.889,429.118 293.704,505.835C318.681,551.684 286.491,607.378 234.944,609.268C234.05,609.301 233.148,609.318 232.238,609.318C179.121,609.318 145.355,552.485 170.765,505.839C189.246,474.198 207.734,442.566 226.214,410.924C229.748,404.876 234.719,404.876 238.253,410.924Z" style="fill:rgb(35,31,32);fill-rule:nonzero;"/>
        <path d="M238.253,410.924L238.642,411.592C240.292,414.412 248.889,429.118 293.704,505.835C318.681,551.684 286.491,607.378 234.944,609.268C234.05,609.301 233.148,609.318 232.238,609.318C179.121,609.318 145.355,552.485 170.765,505.839C189.246,474.198 207.734,442.566 226.214,410.924C229.748,404.876 234.719,404.876 238.253,410.924Z" style="fill:none;stroke:rgb(0,0,2);stroke-width:0.75px;"/>
        <path d="M59.66,345.529L59.66,338.549C59.66,321.297 66.813,314.146 84.063,314.146L380.407,314.146C397.667,314.146 404.81,321.297 404.81,338.549L404.81,345.529C404.81,362.78 397.667,369.932 380.407,369.932L84.063,369.932C66.813,369.932 59.66,362.78 59.66,345.529Z" style="fill:rgb(35,31,32);fill-rule:nonzero;"/>
        <path d="M59.66,345.529L59.66,338.549C59.66,321.297 66.813,314.146 84.063,314.146L380.407,314.146C397.667,314.146 404.81,321.297 404.81,338.549L404.81,345.529C404.81,362.78 397.667,369.932 380.407,369.932L84.063,369.932C66.813,369.932 59.66,362.78 59.66,345.529Z" style="fill:none;stroke:rgb(0,0,2);stroke-width:0.75px;"/>
        <path d="M154.659,56.559C116.863,56.559 103.317,59.007 88.159,65.237C73.01,71.458 56.249,81.462 56.249,100.459L56.249,206.886C56.249,216.744 60.328,220.834 70.188,220.834L394.226,220.834C404.085,220.834 408.166,216.744 408.166,206.886L408.166,100.459C408.166,81.462 391.404,71.458 376.254,65.237C361.096,59.007 347.551,56.559 309.756,56.559L154.659,56.559ZM463.959,85.482L463.952,85.119L463.952,85.308L463.959,85.482ZM463.998,87.567L463.959,85.482L463.952,85.308L463.952,234.774C463.952,264.36 451.692,276.609 422.114,276.609L42.299,276.609C12.722,276.609 0.472,264.36 0.472,234.774L0.472,87.567C0.472,59.371 22.197,39.576 45.851,24.927C69.497,10.277 95.061,0.782 138.088,0.782L326.382,0.782C369.411,0.782 394.975,10.277 418.619,24.927C441.628,39.181 462.827,58.309 463.952,85.308L463.952,85.119L463.959,85.482C463.985,86.172 463.998,86.867 463.998,87.567Z" style="fill:rgb(35,31,32);fill-rule:nonzero;"/>
        <path d="M154.659,56.559C116.863,56.559 103.317,59.007 88.159,65.237C73.01,71.458 56.249,81.462 56.249,100.459L56.249,206.886C56.249,216.744 60.328,220.834 70.188,220.834L394.226,220.834C404.085,220.834 408.166,216.744 408.166,206.886L408.166,100.459C408.166,81.462 391.404,71.458 376.254,65.237C361.096,59.007 347.551,56.559 309.756,56.559L154.659,56.559Z" style="fill:none;stroke:rgb(0,0,2);stroke-width:0.75px;"/>
        <path d="M463.998,87.567L463.959,85.482L463.952,85.308L463.952,234.774C463.952,264.36 451.692,276.609 422.114,276.609L42.299,276.609C12.722,276.609 0.472,264.36 0.472,234.774L0.472,87.567C0.472,59.371 22.197,39.576 45.851,24.927C69.497,10.277 95.061,0.782 138.088,0.782L326.382,0.782C369.411,0.782 394.975,10.277 418.619,24.927C441.628,39.181 462.827,58.309 463.952,85.308L463.952,85.119L463.959,85.482C463.985,86.172 463.998,86.867 463.998,87.567Z" style="fill:none;stroke:rgb(0,0,2);stroke-width:0.75px;"/>
    </g>
</svg>
