<svg xmlns="http://www.w3.org/2000/svg" viewBox="-14.4 -31.4 316.8 316.8" fill-rule="evenodd" clip-rule="evenodd" stroke-linejoin="round" stroke-miterlimit="2">
    <g>
        <path d="M185.191,87C185.191,72.471 196.97,60.692 211.5,60.692C226.029,60.692 237.808,72.471 237.808,87C237.808,101.53 226.029,113.309 211.5,113.309C196.97,113.309 185.191,101.53 185.191,87Z" fill="white" fill-rule="nonzero"/>
        <path d="M163.191,164C163.191,149.471 174.97,137.692 189.5,137.692C204.029,137.692 215.808,149.471 215.808,164C215.808,178.53 204.029,190.309 189.5,190.309C174.97,190.309 163.191,178.53 163.191,164Z" fill="white" fill-rule="nonzero"/>
        <path d="M73.191,178C73.191,163.471 84.97,151.692 99.5,151.692C114.029,151.692 125.808,163.471 125.808,178C125.808,192.53 114.029,204.309 99.5,204.309C84.97,204.309 73.191,192.53 73.191,178Z" fill="white" fill-rule="nonzero"/>
        <path d="M117.191,227C117.191,212.471 128.97,200.692 143.5,200.692C158.029,200.692 169.808,212.471 169.808,227C169.808,241.53 158.029,253.309 143.5,253.309C128.97,253.309 117.191,241.53 117.191,227Z" fill="white" fill-rule="nonzero"/>
        <path d="M20.191,118C20.191,103.471 31.97,91.692 46.5,91.692C61.029,91.692 72.808,103.471 72.808,118C72.808,132.53 61.029,144.309 46.5,144.309C31.97,144.309 20.191,132.53 20.191,118Z" fill="white" fill-rule="nonzero"/>
        <path d="M110.191,104C110.191,89.471 121.97,77.692 136.5,77.692C151.029,77.692 162.808,89.471 162.808,104C162.808,118.53 151.029,130.309 136.5,130.309C121.97,130.309 110.191,118.53 110.191,104Z" fill="white" fill-rule="nonzero"/>
        <path d="M209.691,213.5C209.691,198.971 221.47,187.192 236,187.192C250.529,187.192 262.308,198.971 262.308,213.5C262.308,228.03 250.529,239.809 236,239.809C221.47,239.809 209.691,228.03 209.691,213.5Z" fill="white" fill-rule="nonzero"/>
        <path d="M15.691,207.5C15.691,192.971 27.47,181.192 42,181.192C56.529,181.192 68.308,192.971 68.308,207.5C68.308,222.03 56.529,233.809 42,233.809C27.47,233.809 15.691,222.03 15.691,207.5Z" fill="white" fill-rule="nonzero"/>
        <path d="M0.691,27C0.691,12.471 12.47,0.692 27,0.692C41.529,0.692 53.308,12.471 53.308,27C53.308,41.53 41.529,53.308 27,53.308C12.47,53.308 0.691,41.53 0.691,27Z" fill="white" fill-rule="nonzero"/>
        <path d="M146.691,35C146.691,20.471 158.47,8.692 173,8.692C187.529,8.692 199.308,20.471 199.308,35C199.308,49.53 187.529,61.308 173,61.308C158.47,61.308 146.691,49.53 146.691,35Z" fill="white" fill-rule="nonzero"/>
        <path d="M56.691,55C56.691,40.471 68.47,28.692 83,28.692C97.529,28.692 109.308,40.471 109.308,55C109.308,69.53 97.529,81.309 83,81.309C68.47,81.309 56.691,69.53 56.691,55Z" fill="white" fill-rule="nonzero"/>
        <path d="M228.691,143C228.691,128.471 240.47,116.692 255,116.692C269.529,116.692 281.308,128.471 281.308,143C281.308,157.53 269.529,169.309 255,169.309C240.47,169.309 228.691,157.53 228.691,143Z" fill="white" fill-rule="nonzero"/>
        <path d="M234.691,33C234.691,18.471 246.47,6.692 261,6.692C275.529,6.692 287.308,18.471 287.308,33C287.308,47.53 275.529,59.308 261,59.308C246.47,59.308 234.691,47.53 234.691,33Z" fill="white" fill-rule="nonzero"/>
    </g>
</svg>
