<?xml version="1.0" encoding="UTF-8" standalone="no"?>
<!DOCTYPE svg PUBLIC "-//W3C//DTD SVG 1.1//EN" "http://www.w3.org/Graphics/SVG/1.1/DTD/svg11.dtd">
<svg width="100%" height="100%" viewBox="0 0 521 607" version="1.1" xmlns="http://www.w3.org/2000/svg" xmlns:xlink="http://www.w3.org/1999/xlink" xml:space="preserve" xmlns:serif="http://www.serif.com/" style="fill-rule:evenodd;clip-rule:evenodd;stroke-linejoin:round;stroke-miterlimit:2;">
    <g>
        <path d="M448.787,425.758C437.125,437.128 426.999,447.013 416.208,457.415C405.42,467.835 393.984,478.768 383.858,488.412C373.729,498.042 364.906,506.364 355.956,514.734C347.021,523.088 337.942,531.475 326.861,541.311C315.782,551.133 302.703,562.406 289.786,572.148C276.851,581.906 264.109,590.13 249.868,596.162C235.629,602.21 219.904,606.064 199.971,606.758C180.053,607.466 155.909,605.016 136.847,600.854C117.783,596.693 103.803,590.824 90.238,582.519C76.691,574.213 63.563,563.471 51.935,551.568C40.307,539.682 30.196,526.652 22.163,513.233C14.134,499.816 8.198,485.993 4.745,468.802C1.295,451.595 0.328,431.015 0.102,411.404C-0.124,391.776 0.375,373.118 1.069,352.314C1.778,331.492 2.681,308.528 3.116,286.658C3.569,264.773 3.569,243.984 4.15,216.326C4.713,188.666 5.86,154.12 6.795,130.752C7.73,107.369 8.439,95.158 10.051,86.385C11.665,77.612 14.148,72.289 17.566,68.467C20.97,64.645 25.308,62.354 30.132,61.242C34.97,60.147 40.307,60.257 45.291,61.791C50.259,63.324 54.886,66.292 57.853,71.452C60.821,76.627 62.16,83.983 63.112,92.352C64.062,100.722 64.643,110.11 64.901,140.672C65.145,171.216 65.047,222.938 65.435,250.613C65.822,278.288 66.661,281.933 68.064,285.464C69.449,289.013 71.386,292.448 73.256,294.109C75.126,295.753 76.933,295.64 78.562,294.287C80.208,292.948 81.658,290.366 82.819,286.884C83.966,283.4 84.82,279.014 85.287,272.158C85.755,265.305 85.851,255.983 86.336,218.455C86.835,180.926 87.723,115.189 88.609,78.579C89.495,41.985 90.352,34.519 91.772,28.891C93.189,23.246 95.173,19.456 98.335,16.456C101.512,13.457 105.897,11.264 110.381,10.004C114.882,8.764 119.479,8.474 124.285,9.118C129.091,9.78 134.106,11.392 137.96,13.506C141.813,15.617 144.491,18.245 146.428,21.745C148.347,25.247 149.506,29.617 150.313,34.391C151.12,39.163 151.571,44.326 152.474,84.433C153.377,124.543 154.733,199.602 155.909,239.663C157.071,279.723 158.038,284.802 159.185,288.85C160.312,292.899 161.604,295.898 163.683,297.188C165.763,298.463 168.617,298.012 170.682,295.172C172.747,292.318 174.021,287.076 174.828,280.594C175.633,274.11 175.973,266.385 176.231,225.776C176.504,185.166 176.699,111.672 177.021,71.807C177.326,31.938 177.762,25.682 178.697,20.554C179.617,15.408 181.037,11.36 184.261,8.134C187.487,4.893 192.52,2.457 197.584,1.216C202.632,-0.009 207.711,-0.058 211.985,0.522C216.274,1.103 219.774,2.297 223.322,4.248C226.871,6.2 230.466,8.909 232.693,12.49C234.935,16.053 235.806,20.487 236.515,26.263C237.209,32.036 237.726,39.131 238.193,80.821C238.661,122.495 239.079,198.731 239.564,238.614C240.032,278.498 240.563,282.029 241.37,285.755C242.192,289.48 243.305,293.383 244.707,295.93C246.11,298.495 247.82,299.705 249.757,298.753C251.709,297.801 253.869,294.69 255.53,290.366C257.174,286.045 258.321,280.513 259.175,239.921C260.029,199.344 260.61,123.704 261.094,84.354C261.594,45.017 261.997,41.971 263.127,39.084C264.271,36.198 266.127,33.454 268.77,31.246C271.4,29.051 274.801,27.39 278.35,26.263C281.899,25.116 285.607,24.504 289.429,24.312C293.268,24.117 297.235,24.326 300.961,24.875C304.703,25.424 308.218,26.295 311.348,27.745C314.476,29.214 317.217,31.261 319.186,34.293C321.137,37.325 322.299,41.341 322.943,44.082C323.588,46.824 323.701,48.293 324.541,83.225C325.395,118.157 326.974,186.522 327.604,227.309C328.232,268.078 327.909,281.271 327.7,294.043C327.508,306.832 327.442,319.235 327.959,331.992C328.475,344.749 329.588,357.878 331.345,366.085C333.087,374.279 335.474,377.57 339.7,376.487C343.942,375.407 350.02,369.973 355.811,364.168C361.601,358.377 367.101,352.215 373.052,345.829C379.019,339.426 385.42,332.782 394.356,327.607C403.274,322.444 414.741,318.735 424.821,316.493C434.916,314.252 443.659,313.479 453.786,314.237C463.897,314.995 475.397,317.3 483.978,319.978C492.557,322.655 498.216,325.702 503.234,329.233C508.264,332.767 512.635,336.766 515.539,340.347C518.442,343.927 519.892,347.087 520.49,350.087C521.085,353.072 520.844,355.894 518.878,358.683C516.927,361.49 513.248,364.279 507.619,369.262C501.992,374.248 494.412,381.438 484.025,391.471C473.64,401.502 460.447,414.372 448.787,425.758Z" style="fill:rgb(35,31,32);fill-rule:nonzero;"/>
    </g>
</svg>
