<svg xmlns="http://www.w3.org/2000/svg" viewBox="-135.6 -29.1 640.2 640.2" fill-rule="evenodd" clip-rule="evenodd" stroke-linecap="round" stroke-miterlimit="2">
    <g>
        <path d="M1.85,503.699L1.85,532.7C1.85,550.719 16.457,565.326 34.476,565.326L336.268,565.326C354.287,565.326 368.894,550.719 368.894,532.7L368.894,503.699L1.85,503.699Z" fill="white" fill-rule="nonzero"/>
        <path d="M71.634,493.73C71.634,489.726 74.88,486.48 78.884,486.48L361.644,486.48C365.648,486.48 368.894,489.726 368.894,493.73L368.894,508.23C368.894,512.235 365.648,515.481 361.644,515.481L78.884,515.481C74.88,515.481 71.634,512.235 71.634,508.23L71.634,493.73Z" fill="white" fill-rule="nonzero"/>
        <path d="M278.133,189.834C277.825,186.309 274.717,183.701 271.191,184.009L238.39,186.879C234.864,187.188 232.257,190.296 232.565,193.821L241.653,297.691C241.962,301.217 245.07,303.825 248.596,303.516L281.397,300.646C284.922,300.338 287.53,297.23 287.222,293.704L278.133,189.834Z" fill="white" fill-rule="nonzero"/>
        <path d="M197.607,465.635C197.607,462.632 200.041,460.197 203.045,460.197L345.331,460.197C348.334,460.197 350.768,462.632 350.768,465.635L350.768,530.887C350.768,533.891 348.334,536.325 345.331,536.325L203.045,536.325C200.041,536.325 197.607,533.891 197.607,530.887L197.607,465.635Z" fill="white" fill-rule="nonzero"/>
        <path d="M324.486,317.005L225.702,317.005L235.581,469.53L314.607,469.53L324.486,317.005Z" fill="white" fill-rule="nonzero"/>
        <path d="M260.14,563.06C260.14,552.799 270.69,544.482 283.704,544.482L308.173,544.482C321.187,544.482 331.736,552.799 331.736,563.06C331.736,573.321 321.187,581.639 308.173,581.639L283.704,581.639C270.69,581.639 260.14,573.321 260.14,563.06Z" fill="white" fill-rule="nonzero"/>
        <path d="M38.555,561.701C38.555,551.44 49.104,543.122 62.118,543.122L86.588,543.122C99.601,543.122 110.151,551.44 110.151,561.701C110.151,571.962 99.601,580.28 86.588,580.28L62.118,580.28C49.104,580.28 38.555,571.962 38.555,561.701Z" fill="white" fill-rule="nonzero"/>
        <path d="M329.455,106.37L314.076,101.937" fill="none" stroke="white" stroke-width="20.55"/>
        <path d="M126.13,10.979C118.944,20.481 112.379,31.184 106.434,42.395C106.434,42.395 164.356,59.007 314.076,101.937C314.917,89.588 314.445,64.072 314.445,64.072C255.76,25.217 192.986,7.519 126.13,10.979Z" fill="none" stroke="white" stroke-width="20.55" stroke-linejoin="round"/>
        <path d="M275.591,208.81L296.167,214.71C302.677,193.67 315.108,148.196 318.138,103.789C184.341,65.423 114.14,45.285 101.727,41.715C80.534,81.686 66.988,127.523 61.637,148.038C42.636,220.873 3.835,441.679 6.014,506.415L83.918,506.742L152.995,549.503C192.474,373.966 233.482,213.935 275.591,208.81Z" fill="white" fill-rule="nonzero"/>
        <path d="M275.591,208.81L296.167,214.71C302.677,193.67 315.108,148.196 318.138,103.789C184.341,65.423 114.14,45.285 101.727,41.715C80.534,81.686 66.988,127.523 61.637,148.038C42.636,220.873 3.835,441.679 6.014,506.415L83.918,506.742L152.995,549.503C192.474,373.966 233.482,213.935 275.591,208.81Z" fill="none" stroke="white" stroke-width="10.28" stroke-linejoin="round"/>
    </g>
</svg>
