<?xml version="1.0" encoding="UTF-8" standalone="no"?>
<!DOCTYPE svg PUBLIC "-//W3C//DTD SVG 1.1//EN" "http://www.w3.org/Graphics/SVG/1.1/DTD/svg11.dtd">
<svg width="100%" height="100%" viewBox="0 0 589 559" version="1.1" xmlns="http://www.w3.org/2000/svg" xmlns:xlink="http://www.w3.org/1999/xlink" xml:space="preserve" xmlns:serif="http://www.serif.com/" style="fill-rule:evenodd;clip-rule:evenodd;stroke-linejoin:round;stroke-miterlimit:2;">
    <g>
        <path d="M266.045,18.821C266.045,8.966 274.033,0.977 283.888,0.977L305.31,0.977C315.165,0.977 323.154,8.966 323.154,18.821L323.154,329.689C323.154,339.544 315.165,347.532 305.31,347.532L283.888,347.532C274.033,347.532 266.045,339.544 266.045,329.689L266.045,18.821Z" style="fill:rgb(35,31,32);fill-rule:nonzero;"/>
        <path d="M331.874,29.77C329.324,20.251 334.972,10.467 344.491,7.916L364.739,2.491C374.258,-0.06 384.042,5.589 386.592,15.108L450.331,252.984C452.882,262.503 447.233,272.287 437.714,274.837L417.467,280.263C407.948,282.813 398.164,277.164 395.613,267.646L331.874,29.77Z" style="fill:rgb(35,31,32);fill-rule:nonzero;"/>
        <path d="M202.558,15.122C205.108,5.604 214.892,-0.045 224.411,2.506L244.659,7.932C254.177,10.482 259.826,20.266 257.276,29.785L193.542,267.661C190.992,277.18 181.208,282.829 171.689,280.278L151.441,274.852C141.923,272.301 136.274,262.517 138.824,252.998L202.558,15.122Z" style="fill:rgb(35,31,32);fill-rule:nonzero;"/>
        <path d="M116.807,177.818C133.944,168.044 136.987,156.898 127.223,139.773C117.45,122.637 106.305,119.593 89.179,129.356C-48.638,207.951 -20.587,414.371 133.204,453.327C194.961,593.794 394.247,593.736 455.937,453.251C609.498,414.044 637.329,207.875 499.645,129.356C482.52,119.593 471.374,122.637 461.611,139.773C451.837,156.898 454.89,168.044 472.017,177.818C578.961,238.796 536.375,401.996 413.265,402.946C390.197,536.175 198.916,536.175 175.837,402.946C52.584,402.284 9.738,238.874 116.807,177.818Z" style="fill:rgb(35,31,32);fill-rule:nonzero;"/>
    </g>
</svg>
