<?xml version="1.0" encoding="UTF-8" standalone="no"?>
<!DOCTYPE svg PUBLIC "-//W3C//DTD SVG 1.1//EN" "http://www.w3.org/Graphics/SVG/1.1/DTD/svg11.dtd">
<svg width="100%" height="100%" viewBox="0 0 454 592" version="1.1" xmlns="http://www.w3.org/2000/svg" xmlns:xlink="http://www.w3.org/1999/xlink" xml:space="preserve" xmlns:serif="http://www.serif.com/" style="fill-rule:evenodd;clip-rule:evenodd;stroke-linejoin:round;stroke-miterlimit:2;">
    <g>
        <path d="M30.459,57.179C28.566,111.388 11.566,196.388 118.566,233.388C69.066,121.388 43.566,123.388 30.459,57.179ZM128.125,263.904C28.11,254.433 -32.011,138.015 26.975,3.811C36.398,80.784 205.95,113.415 128.125,263.904Z" style="fill:rgb(35,31,32);"/>
        <path d="M30.459,57.179C28.566,111.388 11.566,196.388 118.566,233.388C69.066,121.388 43.566,123.388 30.459,57.179Z" style="fill:none;stroke:rgb(0,0,2);stroke-width:6.26px;"/>
        <path d="M128.125,263.904C28.11,254.433 -32.011,138.015 26.975,3.811C36.398,80.784 205.95,113.415 128.125,263.904Z" style="fill:none;stroke:rgb(0,0,2);stroke-width:6.26px;"/>
        <path d="M393.566,257.388C316.228,268.417 205.406,234.136 127.566,410.388C239.566,372.388 295.566,287.388 393.566,257.388ZM113.883,437.35C107.63,299.185 254.812,194.912 449.06,249.614C345.938,277.209 333.942,514.615 113.883,437.35Z" style="fill:rgb(35,31,32);"/>
        <path d="M393.566,257.388C316.228,268.417 205.406,234.136 127.566,410.388C239.566,372.388 295.566,287.388 393.566,257.388Z" style="fill:none;stroke:rgb(0,0,2);stroke-width:8.62px;"/>
        <path d="M113.883,437.35C107.63,299.185 254.812,194.912 449.06,249.614C345.938,277.209 333.942,514.615 113.883,437.35Z" style="fill:none;stroke:rgb(0,0,2);stroke-width:8.62px;"/>
        <path d="M121.983,580.382C83.184,501.533 71.262,278.028 164.698,183.832C114.973,275.58 98.075,411.016 121.983,580.382Z" style="fill:rgb(35,31,32);"/>
        <path d="M121.983,580.382C83.184,501.533 71.262,278.028 164.698,183.832C114.973,275.58 98.075,411.016 121.983,580.382Z" style="fill:none;stroke:rgb(35,31,32);stroke-width:22.68px;stroke-linecap:round;"/>
        <path d="M276.066,122.888C217.114,126.199 195.566,146.888 159.566,216.388C236.566,168.388 229.114,157.199 276.066,122.888ZM151.785,230.554C136.821,157.588 206.323,89.723 314.253,102.452C261.726,125.819 275.345,253.109 151.785,230.554Z" style="fill:rgb(35,31,32);"/>
        <path d="M276.066,122.888C217.114,126.199 195.566,146.888 159.566,216.388C236.566,168.388 229.114,157.199 276.066,122.888Z" style="fill:none;stroke:rgb(0,0,2);stroke-width:4.64px;"/>
        <path d="M151.785,230.554C136.821,157.588 206.323,89.723 314.253,102.452C261.726,125.819 275.345,253.109 151.785,230.554Z" style="fill:none;stroke:rgb(0,0,2);stroke-width:4.64px;"/>
    </g>
</svg>
