<svg xmlns="http://www.w3.org/2000/svg" viewBox="-158.1 -27.6 607.2 607.2" fill-rule="evenodd" clip-rule="evenodd" stroke-miterlimit="2">
    <g>
        <path d="M21.872,407.097C21.872,358.039 50.475,315.662 91.914,295.734C91.886,295.025 91.872,294.313 91.872,293.597L91.872,74.597C91.872,45.325 115.601,21.597 144.872,21.597L145.872,21.597C175.144,21.597 198.872,45.325 198.872,74.597L198.872,293.597C198.872,294.313 198.858,295.025 198.83,295.734C240.269,315.662 268.872,358.039 268.872,407.097C268.872,475.305 213.58,530.597 145.372,530.597C77.164,530.597 21.872,475.305 21.872,407.097Z" fill="none" stroke="white" stroke-width="42.52"/>
        <path d="M71.748,406.818C71.748,370.034 98.586,339.519 133.748,333.786L133.748,218.818C133.748,212.19 138.897,206.818 145.248,206.818C151.6,206.818 156.748,212.19 156.748,218.818L156.748,333.63C192.401,338.942 219.748,369.686 219.748,406.818C219.748,447.687 186.618,480.818 145.748,480.818C104.879,480.818 71.748,447.687 71.748,406.818Z" fill="white" fill-rule="nonzero"/>
    </g>
</svg>
