<svg xmlns="http://www.w3.org/2000/svg" viewBox="-134.75 -29.25 643.5 643.5" fill-rule="evenodd" clip-rule="evenodd" stroke-linejoin="round" stroke-miterlimit="2">
    <g>
        <path d="M186.847,83.165L141.209,135.629C107.148,174.778 134.96,235.834 186.847,235.834C238.745,235.834 266.555,174.778 232.495,135.629L186.847,83.165ZM191.445,3.466C219.151,35.319 246.866,67.172 274.572,99.015C340.044,174.27 286.591,291.61 186.847,291.61C87.103,291.61 33.66,174.27 99.122,99.015C126.837,67.172 154.543,35.319 182.249,3.466C185.407,-0.162 188.287,-0.162 191.445,3.466Z" fill="white" fill-rule="nonzero"/>
        <path d="M161.216,533.492C173.772,504.654 199.922,504.654 212.488,533.492C250.005,619.623 379.096,588.402 373.115,494.65C371.859,474.97 363.179,467.338 343.499,468.595C323.82,469.853 316.187,478.522 317.445,498.203C319.769,534.49 278.142,544.56 263.627,511.219C247.739,474.74 226.638,460.915 186.847,460.915C147.065,460.915 125.964,474.74 110.076,511.219C95.551,544.56 53.935,534.49 56.249,498.203C57.506,478.522 49.874,469.853 30.194,468.595C10.514,467.338 1.845,474.97 0.588,494.65C-5.402,588.402 123.698,619.623 161.216,533.492Z" fill="white" fill-rule="nonzero"/>
        <path d="M161.216,394.339C173.772,365.492 199.922,365.492 212.488,394.339C250.005,480.471 379.096,449.252 373.115,355.489C371.859,335.808 363.179,328.177 343.499,329.433C323.82,330.692 316.187,339.37 317.445,359.05C319.769,395.338 278.142,405.399 263.627,372.058C247.739,335.587 226.638,321.763 186.847,321.763C147.065,321.763 125.964,335.587 110.076,372.058C95.551,405.399 53.935,395.338 56.249,359.05C57.506,339.37 49.874,330.692 30.194,329.433C10.514,328.177 1.845,335.808 0.588,355.489C-5.402,449.252 123.698,480.471 161.216,394.339Z" fill="white" fill-rule="nonzero"/>
    </g>
</svg>
