<svg xmlns="http://www.w3.org/2000/svg" viewBox="-25.45 -81.95 559.9 559.9" fill-rule="evenodd" clip-rule="evenodd" stroke-linecap="round" stroke-miterlimit="2">
    <g>
        <path d="M212.18,333.788C212.18,308.633 232.571,288.241 257.727,288.241C282.882,288.241 303.273,308.633 303.273,333.788C303.273,358.943 282.882,379.335 257.727,379.335C232.571,379.335 212.18,358.943 212.18,333.788Z" fill="white" fill-rule="nonzero"/>
        <path d="M212.18,333.788C212.18,308.633 232.571,288.241 257.727,288.241C282.882,288.241 303.273,308.633 303.273,333.788C303.273,358.943 282.882,379.335 257.727,379.335C232.571,379.335 212.18,358.943 212.18,333.788Z" fill="none" stroke="white" stroke-width="31.49"/>
        <path d="M29.041,122.214C153.501,-2.246 355.243,-2.266 479.703,122.194" fill="none" stroke="white" stroke-width="56.69"/>
        <path d="M83.54,185.046C177.9,90.71 330.861,90.712 425.217,185.054" fill="none" stroke="white" stroke-width="56.69"/>
        <path d="M149.821,242.993C207.575,185.264 301.187,185.267 358.937,243.003" fill="none" stroke="white" stroke-width="56.69"/>
    </g>
</svg>
